# xmcd
#
# Track frame offsets:
#	150
#	20261
#	44669
#	61667
#	87759
#	109209
#	141585
#	164640
#	182408
#	213323
#
# Disc length: 3114 seconds
#
# Revision: 1
# Processed by: cddbd v1.5.2PL0 Copyright (c) Steve Scherf et al.
# Submitted via: audiograbber 1.83.01
#
DISCID=890c280a
DTITLE=Zoe Muth And The High Rollers - Starlight Hotel
DYEAR=2011
DGENRE=Country
TTITLE0=I've Been Gone
TTITLE1=Whatever's Left
TTITLE2=Let's Just Be Friends For Tonight
TTITLE3=Before The Night Is Gone
TTITLE4=Harvest Moon Blues
TTITLE5=New Mexico
TTITLE6=If I Can't Trust You With A Quarter (How Can I Trust You With My Heart?
TTITLE6=)
TTITLE7=Tired Worker's Song
TTITLE8=Starlight Hotel
TTITLE9=Come Inside
EXTD=
EXTT0=
EXTT1=
EXTT2=
EXTT3=
EXTT4=
EXTT5=
EXTT6=
EXTT7=
EXTT8=
EXTT9=
PLAYORDER=
